REM DIRINDEX 1\2,1\3,1\4,1\5
REM DIRNAME "folder01","folder02","folder03","folder04","folder05"
TITLE ""
FILE "1Q_j_2291-2300.mp3" MP3
  TRACK 01 AUDIO
    TITLE "3:cjc172_0574"
    INDEX 01 00:00:00
  TRACK 02 AUDIO
    TITLE "0:"
    INDEX 01 00:01:31
  TRACK 03 AUDIO
    TITLE "4:cjc172_0575"
    INDEX 01 00:01:41
  TRACK 04 AUDIO
    TITLE "0:"
    INDEX 01 00:03:40
  TRACK 05 AUDIO
    TITLE "5:cjc172_0576"
    INDEX 01 00:03:48
  TRACK 06 AUDIO
    TITLE "0:"
    INDEX 01 00:09:74
  TRACK 07 AUDIO
    TITLE "3:cjc172_0577"
    INDEX 01 00:10:44
  TRACK 08 AUDIO
    TITLE "0:"
    INDEX 01 00:12:00
  TRACK 09 AUDIO
    TITLE "4:cjc172_0578"
    INDEX 01 00:12:06
  TRACK 10 AUDIO
    TITLE "0:"
    INDEX 01 00:14:30
  TRACK 11 AUDIO
    TITLE "5:cjc172_0579"
    INDEX 01 00:14:38
  TRACK 12 AUDIO
    TITLE "0:"
    INDEX 01 00:21:40
  TRACK 13 AUDIO
    TITLE "3:cjc172_0580"
    INDEX 01 00:22:10
  TRACK 14 AUDIO
    TITLE "0:"
    INDEX 01 00:23:29
  TRACK 15 AUDIO
    TITLE "4:cjc172_0581"
    INDEX 01 00:23:39
  TRACK 16 AUDIO
    TITLE "0:"
    INDEX 01 00:26:16
  TRACK 17 AUDIO
    TITLE "5:cjc172_0582"
    INDEX 01 00:26:23
  TRACK 18 AUDIO
    TITLE "0:"
    INDEX 01 00:33:00
  TRACK 19 AUDIO
    TITLE "3:cjc172_0583"
    INDEX 01 00:33:47
  TRACK 20 AUDIO
    TITLE "0:"
    INDEX 01 00:34:74
  TRACK 21 AUDIO
    TITLE "4:cjc172_0584"
    INDEX 01 00:35:07
  TRACK 22 AUDIO
    TITLE "0:"
    INDEX 01 00:36:73
  TRACK 23 AUDIO
    TITLE "5:cjc172_0585"
    INDEX 01 00:37:06
  TRACK 24 AUDIO
    TITLE "0:"
    INDEX 01 00:43:26
  TRACK 25 AUDIO
    TITLE "3:cjc172_0586"
    INDEX 01 00:43:71
  TRACK 26 AUDIO
    TITLE "0:"
    INDEX 01 00:45:07
  TRACK 27 AUDIO
    TITLE "4:cjc172_0587"
    INDEX 01 00:45:15
  TRACK 28 AUDIO
    TITLE "0:"
    INDEX 01 00:47:24
  TRACK 29 AUDIO
    TITLE "5:cjc172_0588"
    INDEX 01 00:47:31
  TRACK 30 AUDIO
    TITLE "0:"
    INDEX 01 00:54:04
  TRACK 31 AUDIO
    TITLE "3:cjc172_0589"
    INDEX 01 00:54:47
  TRACK 32 AUDIO
    TITLE "0:"
    INDEX 01 00:56:15
  TRACK 33 AUDIO
    TITLE "4:cjc172_0590"
    INDEX 01 00:56:25
  TRACK 34 AUDIO
    TITLE "0:"
    INDEX 01 00:59:23
  TRACK 35 AUDIO
    TITLE "5:cjc172_0591"
    INDEX 01 00:59:31
  TRACK 36 AUDIO
    TITLE "0:"
    INDEX 01 01:05:57
  TRACK 37 AUDIO
    TITLE "3:cjc172_0592"
    INDEX 01 01:06:27
  TRACK 38 AUDIO
    TITLE "0:"
    INDEX 01 01:07:48
  TRACK 39 AUDIO
    TITLE "4:cjc172_0593"
    INDEX 01 01:07:56
  TRACK 40 AUDIO
    TITLE "0:"
    INDEX 01 01:10:11
  TRACK 41 AUDIO
    TITLE "5:cjc172_0594"
    INDEX 01 01:10:19
  TRACK 42 AUDIO
    TITLE "0:"
    INDEX 01 01:14:26
  TRACK 43 AUDIO
    TITLE "3:cjc172_0595"
    INDEX 01 01:14:73
  TRACK 44 AUDIO
    TITLE "0:"
    INDEX 01 01:16:04
  TRACK 45 AUDIO
    TITLE "4:cjc172_0596"
    INDEX 01 01:16:21
  TRACK 46 AUDIO
    TITLE "0:"
    INDEX 01 01:20:19
  TRACK 47 AUDIO
    TITLE "5:cjc172_0597"
    INDEX 01 01:20:27
  TRACK 48 AUDIO
    TITLE "0:"
    INDEX 01 01:25:01
  TRACK 49 AUDIO
    TITLE "3:cjc172_0598"
    INDEX 01 01:25:46
  TRACK 50 AUDIO
    TITLE "0:"
    INDEX 01 01:27:07
  TRACK 51 AUDIO
    TITLE "4:cjc172_0599"
    INDEX 01 01:27:15
  TRACK 52 AUDIO
    TITLE "0:"
    INDEX 01 01:29:47
  TRACK 53 AUDIO
    TITLE "5:cjc172_0600"
    INDEX 01 01:29:53
  TRACK 54 AUDIO
    TITLE "0:"
    INDEX 01 01:34:04
  TRACK 55 AUDIO
    TITLE "3:cjc172_0601"
    INDEX 01 01:34:47
  TRACK 56 AUDIO
    TITLE "0:"
    INDEX 01 01:36:01
  TRACK 57 AUDIO
    TITLE "4:cjc172_0602"
    INDEX 01 01:36:12
  TRACK 58 AUDIO
    TITLE "0:"
    INDEX 01 01:38:29
  TRACK 59 AUDIO
    TITLE "5:cjc172_0603"
    INDEX 01 01:38:37
  TRACK 60 AUDIO
    TITLE "0:"
    INDEX 01 01:45:50
